<svg width="109" height="99" viewBox="0 0 109 99" fill="none" xmlns="http://www.w3.org/2000/svg">
<path d="M0.00446846 82.7326L1.21986 80.0251C2.37717 80.7829 4.02152 81.3057 5.53629 81.3057C7.05107 81.3057 7.6677 80.8803 7.6677 80.2511C7.6677 78.195 0.227886 79.6972 0.227886 74.8759C0.227886 72.5583 2.13588 70.6706 6.02335 70.6706C7.72579 70.6706 9.48185 71.0606 10.7687 71.8006L9.62931 74.5258C8.37817 73.8567 7.1449 73.5244 6.00547 73.5244C4.45495 73.5244 3.89194 74.0428 3.89194 74.6898C3.89194 76.675 11.3094 75.1905 11.3094 79.9719C11.3094 82.2319 9.40142 84.1595 5.51395 84.1595C3.36467 84.1595 1.23327 83.5834 0 82.7326H0.00446846Z" fill="white"/>
<path d="M21.9843 78.3235V83.9025H18.6777V82.6041C18.1728 83.5657 17.1629 84.0665 15.6884 84.0665C13.2576 84.0665 11.9126 82.7149 11.9126 80.9734C11.9126 79.1211 13.2754 77.969 16.4167 77.969H18.4364C18.3783 76.9498 17.6902 76.3737 16.2871 76.3737C15.3175 76.3737 14.2317 76.7061 13.5391 77.2467L12.3416 74.8538C13.4989 74.096 15.2192 73.6839 16.8099 73.6839C20.0986 73.6839 21.9843 75.1285 21.9843 78.319V78.3235ZM18.4319 80.6765V79.8035H16.8993C15.7599 79.8035 15.3488 80.2112 15.3488 80.8227C15.3488 81.4343 15.8358 81.8419 16.6759 81.8419C17.4623 81.8419 18.1504 81.4697 18.4319 80.6765Z" fill="white"/>
<path d="M34.6566 78.1551V83.9025H31.1043V78.7312C31.1043 77.2865 30.4698 76.675 29.442 76.675C28.3026 76.675 27.4223 77.3796 27.4223 79.0458V83.9025H23.87V73.8567H27.2525V74.9512C28.0568 74.1182 29.1963 73.6927 30.4653 73.6927C32.838 73.6927 34.6521 75.0443 34.6521 78.1595L34.6566 78.1551Z" fill="white"/>
<path d="M36.1312 70.87C36.1312 69.8154 36.9891 69 38.2983 69C39.6075 69 40.4655 69.7578 40.4655 70.8168C40.4655 71.9291 39.6075 72.7445 38.2983 72.7445C36.9891 72.7445 36.1312 71.9291 36.1312 70.8745V70.87ZM36.5244 73.8523H40.0767V83.8981H36.5244V73.8523Z" fill="white"/>
<path d="M59.304 78.1551V83.9025H55.7517V78.7312C55.7517 77.2865 55.1529 76.675 54.219 76.675C53.1913 76.675 52.4451 77.3619 52.4451 78.9173V83.9025H48.8927V78.7312C48.8927 77.2865 48.3119 76.675 47.3601 76.675C46.3145 76.675 45.5638 77.3619 45.5638 78.9173V83.9025H42.0115V73.8567H45.394V74.9114C46.1581 74.096 47.226 73.6883 48.4236 73.6883C49.8088 73.6883 50.9839 74.1891 51.6944 75.2659C52.4987 74.2644 53.7498 73.6883 55.2065 73.6883C57.5614 73.6883 59.2995 75.0399 59.2995 78.1551H59.304Z" fill="white"/>
<path d="M70.6849 78.3235V83.9025H67.3783V82.6041C66.8734 83.5657 65.8635 84.0665 64.389 84.0665C61.9582 84.0665 60.6132 82.7149 60.6132 80.9734C60.6132 79.1211 61.9761 77.969 65.1173 77.969H67.137C67.0789 76.9498 66.3908 76.3737 64.9877 76.3737C64.0181 76.3737 62.9323 76.7061 62.2397 77.2467L61.0422 74.8538C62.1995 74.096 63.9198 73.6839 65.5105 73.6839C68.7993 73.6839 70.6849 75.1285 70.6849 78.319V78.3235ZM67.1326 80.6765V79.8035H65.5999C64.4605 79.8035 64.0494 80.2112 64.0494 80.8227C64.0494 81.4343 64.5364 81.8419 65.3765 81.8419C66.1629 81.8419 66.8511 81.4697 67.1326 80.6765Z" fill="white"/>
<path d="M79.5635 83.4904C78.9469 83.8804 78.0309 84.0665 77.097 84.0665C74.5009 84.0665 72.9861 82.808 72.9861 80.229V76.8567H71.5115V74.2245H72.9861V71.61H76.5384V74.2245H78.8575V76.8567H76.5384V80.1935C76.5384 80.9335 76.9674 81.3412 77.6019 81.3412C77.9951 81.3412 78.3883 81.2304 78.6877 81.0266L79.568 83.4904H79.5635Z" fill="white"/>
<path d="M80.1802 70.87C80.1802 69.8154 81.0381 69 82.3473 69C83.6566 69 84.5145 69.7578 84.5145 70.8168C84.5145 71.9291 83.6566 72.7445 82.3473 72.7445C81.0381 72.7445 80.1802 71.9291 80.1802 70.8745V70.87ZM80.5734 73.8523H84.1257V83.8981H80.5734V73.8523Z" fill="white"/>
<path d="M85.4305 78.8597C85.4305 75.8375 87.8435 73.6883 91.15 73.6883C94.4566 73.6883 96.8695 75.8375 96.8695 78.8597C96.8695 81.8818 94.4968 84.0665 91.15 84.0665C87.8032 84.0665 85.4305 81.8995 85.4305 78.8597ZM93.2814 78.8597C93.2814 77.3397 92.3654 76.4889 91.15 76.4889C89.9346 76.4889 89.0186 77.3397 89.0186 78.8597C89.0186 80.3796 89.9525 81.2703 91.15 81.2703C92.3476 81.2703 93.2814 80.3973 93.2814 78.8597Z" fill="white"/>
<path d="M108.943 78.1551V83.9025H105.391V78.7312C105.391 77.2865 104.756 76.675 103.728 76.675C102.589 76.675 101.709 77.3796 101.709 79.0458V83.9025H98.1564V73.8567H101.539V74.9512C102.343 74.1182 103.483 73.6927 104.752 73.6927C107.124 73.6927 108.939 75.0443 108.939 78.1595L108.943 78.1551Z" fill="white"/>
<path d="M0.379822 97.3693L1.07242 95.9247C2.04205 96.7976 3.70875 97.4269 5.38885 97.4269C7.64984 97.4269 8.62394 96.5539 8.62394 95.4239C8.62394 92.2555 0.701544 94.2541 0.701544 89.4372C0.701544 87.4343 2.26994 85.7282 5.71057 85.7282C7.24322 85.7282 8.82948 86.1359 9.91529 86.8759L9.29866 88.3604C8.15923 87.6381 6.86788 87.3058 5.71057 87.3058C3.48533 87.3058 2.53357 88.2319 2.53357 89.3619C2.53357 92.5303 10.456 90.5495 10.456 95.3131C10.456 97.2984 8.84736 99 5.39332 99C3.39149 99 1.42989 98.3309 0.38429 97.3693H0.379822Z" fill="white"/>
<path d="M18.1326 98.2777C17.5919 98.743 16.7698 98.9645 15.9655 98.9645C13.9636 98.9645 12.8242 97.87 12.8242 95.8892V90.4963H11.1441V89.0339H12.8242V86.8848H14.6205V89.0339H17.4624V90.4963H14.6205V95.8139C14.6205 96.8685 15.179 97.4623 16.171 97.4623C16.6938 97.4623 17.1987 97.2939 17.5741 96.997L18.1326 98.2777Z" fill="white"/>
<path d="M29.1784 89.0296V98.8538H27.4759V97.3693C26.7476 98.3885 25.5143 98.9646 24.1113 98.9646C21.5509 98.9646 19.8484 97.5731 19.8484 94.6839V89.0296H21.6447V94.4801C21.6447 96.4077 22.6188 97.3693 24.3168 97.3693C26.1846 97.3693 27.3821 96.2216 27.3821 94.1079V89.0296H29.1784Z" fill="white"/>
<path d="M41.587 85.099V98.8493H39.8667V97.2939C39.0624 98.4062 37.7934 98.9601 36.3367 98.9601C33.4412 98.9601 31.3277 96.9394 31.3277 93.9394C31.3277 90.9394 33.4412 88.9365 36.3367 88.9365C37.7398 88.9365 38.9731 89.455 39.7952 90.514V85.1034H41.5915L41.587 85.099ZM39.8131 93.9394C39.8131 91.8434 38.3743 90.4919 36.4886 90.4919C34.603 90.4919 33.1418 91.8434 33.1418 93.9394C33.1418 96.0354 34.5807 97.4047 36.4886 97.4047C38.3966 97.4047 39.8131 96.031 39.8131 93.9394Z" fill="white"/>
<path d="M44.3171 85.9897C44.3171 85.3427 44.8399 84.8198 45.5325 84.8198C46.2251 84.8198 46.7479 85.3205 46.7479 85.9498C46.7479 86.6189 46.243 87.1374 45.5325 87.1374C44.8221 87.1374 44.3171 86.6366 44.3171 85.9897ZM44.6344 89.0295H46.4307V98.8538H44.6344V89.0295Z" fill="white"/>
<path d="M48.58 93.9439C48.58 91.0148 50.765 88.9409 53.7365 88.9409C56.708 88.9409 58.8751 91.0148 58.8751 93.9439C58.8751 96.873 56.708 98.9645 53.7365 98.9645C50.765 98.9645 48.58 96.8685 48.58 93.9439ZM57.0654 93.9439C57.0654 91.8479 55.6445 90.4963 53.741 90.4963C51.8375 90.4963 50.3942 91.8479 50.3942 93.9439C50.3942 96.0399 51.833 97.4092 53.741 97.4092C55.649 97.4092 57.0654 96.0355 57.0654 93.9439Z" fill="white"/>
<path d="M59.7554 97.8168L60.5016 96.4077C61.3416 97.0015 62.6866 97.4269 63.978 97.4269C65.6402 97.4269 66.3328 96.9262 66.3328 96.0931C66.3328 93.8863 60.0726 95.7962 60.0726 91.8877C60.0726 90.1285 61.6634 88.9409 64.2014 88.9409C65.4927 88.9409 66.9494 89.2733 67.8074 89.8316L67.0433 91.2408C66.1451 90.6647 65.1576 90.4609 64.1835 90.4609C62.6151 90.4609 61.8466 91.0369 61.8466 91.8124C61.8466 94.13 68.1246 92.2378 68.1246 96.0576C68.1246 97.839 66.4803 98.969 63.8439 98.969C62.1996 98.969 60.5731 98.4682 59.7509 97.8213L59.7554 97.8168Z" fill="white"/>
<path d="M69.1747 97.6839C69.1747 96.9439 69.7556 96.4254 70.4437 96.4254C71.1318 96.4254 71.677 96.9439 71.677 97.6839C71.677 98.4239 71.1184 98.9645 70.4437 98.9645C69.769 98.9645 69.1747 98.4284 69.1747 97.6839Z" fill="white"/>
<path d="M75.9141 13.4643L62.1214 26.6611L48.8142 13.4643H75.9141Z" fill="white"/>
<path d="M76 13.9604V40.4247L62.8743 27.4078L76 13.9604Z" fill="white"/>
<path d="M61.0325 27.7021L47.5071 40.6436L34.4574 27.7021H61.0325Z" fill="white"/>
<path d="M61.6431 28.6676V54.66L48.7504 41.8766L61.6431 28.6676Z" fill="white"/>
<path d="M46.0478 42.0396L32.7897 54.7233L20 42.0396H46.0478Z" fill="white"/>
<path d="M47.1858 43.4794V69L34.5285 56.4477L47.1858 43.4794Z" fill="white"/>
</svg>
